<?xml version="1.0" encoding="utf-8" standalone="no"?>
<!DOCTYPE svg PUBLIC "-//W3C//DTD SVG 1.1//EN"
  "http://www.w3.org/Graphics/SVG/1.1/DTD/svg11.dtd">
<svg xmlns:xlink="http://www.w3.org/1999/xlink" width="324pt" height="324pt" viewBox="0 0 324 324" xmlns="http://www.w3.org/2000/svg" version="1.1">
 <metadata>
  <rdf:RDF xmlns:dc="http://purl.org/dc/elements/1.1/" xmlns:cc="http://creativecommons.org/ns#" xmlns:rdf="http://www.w3.org/1999/02/22-rdf-syntax-ns#">
   <cc:Work>
    <dc:type rdf:resource="http://purl.org/dc/dcmitype/StillImage"/>
    <dc:date>2025-05-23T21:08:26.266562</dc:date>
    <dc:format>image/svg+xml</dc:format>
    <dc:creator>
     <cc:Agent>
      <dc:title>Matplotlib v3.10.1, https://matplotlib.org/</dc:title>
     </cc:Agent>
    </dc:creator>
   </cc:Work>
  </rdf:RDF>
 </metadata>
 <defs>
  <style type="text/css">*{stroke-linejoin: round; stroke-linecap: butt}</style>
 </defs>
 <g id="figure_1">
  <g id="patch_1">
   <path d="M 0 324 
L 324 324 
L 324 0 
L 0 0 
z
"/>
  </g>
  <g id="axes_1">
   <g id="patch_2">
    <path d="M 60.508418 278.296 
L 311.564418 278.296 
L 311.564418 27.24 
L 60.508418 27.24 
z
"/>
   </g>
   <g id="PathCollection_1">
    <defs>
     <path id="me9ada927c3" d="M 0 0.5 
C 0.132602 0.5 0.25979 0.447317 0.353553 0.353553 
C 0.447317 0.25979 0.5 0.132602 0.5 0 
C 0.5 -0.132602 0.447317 -0.25979 0.353553 -0.353553 
C 0.25979 -0.447317 0.132602 -0.5 0 -0.5 
C -0.132602 -0.5 -0.25979 -0.447317 -0.353553 -0.353553 
C -0.447317 -0.25979 -0.5 -0.132602 -0.5 0 
C -0.5 0.132602 -0.447317 0.25979 -0.353553 0.353553 
C -0.25979 0.447317 -0.132602 0.5 0 0.5 
z
" style="stroke: #1f77b4"/>
    </defs>
    <g clip-path="url(#pa8659c4377)">
     <use xlink:href="#me9ada927c3" x="79.175218" y="152.812374" style="fill: #1f77b4; stroke: #1f77b4"/>
     <use xlink:href="#me9ada927c3" x="80.114446" y="152.462803" style="fill: #1f77b4; stroke: #1f77b4"/>
     <use xlink:href="#me9ada927c3" x="81.085476" y="151.756823" style="fill: #1f77b4; stroke: #1f77b4"/>
     <use xlink:href="#me9ada927c3" x="82.063192" y="150.736817" style="fill: #1f77b4; stroke: #1f77b4"/>
     <use xlink:href="#me9ada927c3" x="83.027674" y="149.446979" style="fill: #1f77b4; stroke: #1f77b4"/>
     <use xlink:href="#me9ada927c3" x="83.963126" y="147.931341" style="fill: #1f77b4; stroke: #1f77b4"/>
     <use xlink:href="#me9ada927c3" x="84.856772" y="146.232646" style="fill: #1f77b4; stroke: #1f77b4"/>
     <use xlink:href="#me9ada927c3" x="85.697835" y="144.391863" style="fill: #1f77b4; stroke: #1f77b4"/>
     <use xlink:href="#me9ada927c3" x="86.476668" y="142.44817" style="fill: #1f77b4; stroke: #1f77b4"/>
     <use xlink:href="#me9ada927c3" x="87.184027" y="140.439233" style="fill: #1f77b4; stroke: #1f77b4"/>
     <use xlink:href="#me9ada927c3" x="87.810478" y="138.401707" style="fill: #1f77b4; stroke: #1f77b4"/>
     <use xlink:href="#me9ada927c3" x="88.345912" y="136.371862" style="fill: #1f77b4; stroke: #1f77b4"/>
     <use xlink:href="#me9ada927c3" x="88.779169" y="134.386298" style="fill: #1f77b4; stroke: #1f77b4"/>
     <use xlink:href="#me9ada927c3" x="89.097758" y="132.482714" style="fill: #1f77b4; stroke: #1f77b4"/>
     <use xlink:href="#me9ada927c3" x="89.2877" y="130.70067" style="fill: #1f77b4; stroke: #1f77b4"/>
     <use xlink:href="#me9ada927c3" x="89.333547" y="129.08231" style="fill: #1f77b4; stroke: #1f77b4"/>
     <use xlink:href="#me9ada927c3" x="89.218658" y="127.672937" style="fill: #1f77b4; stroke: #1f77b4"/>
     <use xlink:href="#me9ada927c3" x="88.925852" y="126.521316" style="fill: #1f77b4; stroke: #1f77b4"/>
     <use xlink:href="#me9ada927c3" x="88.438602" y="125.679487" style="fill: #1f77b4; stroke: #1f77b4"/>
     <use xlink:href="#me9ada927c3" x="87.742973" y="125.201776" style="fill: #1f77b4; stroke: #1f77b4"/>
     <use xlink:href="#me9ada927c3" x="86.830492" y="125.142625" style="fill: #1f77b4; stroke: #1f77b4"/>
     <use xlink:href="#me9ada927c3" x="85.70203" y="125.552788" style="fill: #1f77b4; stroke: #1f77b4"/>
     <use xlink:href="#me9ada927c3" x="84.372532" y="126.473513" style="fill: #1f77b4; stroke: #1f77b4"/>
     <use xlink:href="#me9ada927c3" x="82.875953" y="127.928668" style="fill: #1f77b4; stroke: #1f77b4"/>
     <use xlink:href="#me9ada927c3" x="81.269068" y="129.915392" style="fill: #1f77b4; stroke: #1f77b4"/>
     <use xlink:href="#me9ada927c3" x="79.632186" y="132.394891" style="fill: #1f77b4; stroke: #1f77b4"/>
     <use xlink:href="#me9ada927c3" x="78.064636" y="135.286042" style="fill: #1f77b4; stroke: #1f77b4"/>
     <use xlink:href="#me9ada927c3" x="76.673905" y="138.465003" style="fill: #1f77b4; stroke: #1f77b4"/>
     <use xlink:href="#me9ada927c3" x="75.559668" y="141.77317" style="fill: #1f77b4; stroke: #1f77b4"/>
     <use xlink:href="#me9ada927c3" x="74.796848" y="145.033409" style="fill: #1f77b4; stroke: #1f77b4"/>
     <use xlink:href="#me9ada927c3" x="74.423336" y="148.071334" style="fill: #1f77b4; stroke: #1f77b4"/>
     <use xlink:href="#me9ada927c3" x="74.436637" y="150.736103" style="fill: #1f77b4; stroke: #1f77b4"/>
     <use xlink:href="#me9ada927c3" x="74.799881" y="152.915389" style="fill: #1f77b4; stroke: #1f77b4"/>
     <use xlink:href="#me9ada927c3" x="75.453907" y="154.541629" style="fill: #1f77b4; stroke: #1f77b4"/>
     <use xlink:href="#me9ada927c3" x="76.33058" y="155.589919" style="fill: #1f77b4; stroke: #1f77b4"/>
     <use xlink:href="#me9ada927c3" x="77.36355" y="156.070282" style="fill: #1f77b4; stroke: #1f77b4"/>
     <use xlink:href="#me9ada927c3" x="78.494844" y="156.01765" style="fill: #1f77b4; stroke: #1f77b4"/>
     <use xlink:href="#me9ada927c3" x="79.67754" y="155.482233" style="fill: #1f77b4; stroke: #1f77b4"/>
     <use xlink:href="#me9ada927c3" x="80.875701" y="154.521717" style="fill: #1f77b4; stroke: #1f77b4"/>
     <use xlink:href="#me9ada927c3" x="82.062819" y="153.195733" style="fill: #1f77b4; stroke: #1f77b4"/>
     <use xlink:href="#me9ada927c3" x="83.219719" y="151.562391" style="fill: #1f77b4; stroke: #1f77b4"/>
     <use xlink:href="#me9ada927c3" x="84.332491" y="149.676429" style="fill: #1f77b4; stroke: #1f77b4"/>
     <use xlink:href="#me9ada927c3" x="85.390693" y="147.588494" style="fill: #1f77b4; stroke: #1f77b4"/>
     <use xlink:href="#me9ada927c3" x="86.385904" y="145.345171" style="fill: #1f77b4; stroke: #1f77b4"/>
     <use xlink:href="#me9ada927c3" x="87.310592" y="142.989461" style="fill: #1f77b4; stroke: #1f77b4"/>
     <use xlink:href="#me9ada927c3" x="88.157224" y="140.561534" style="fill: #1f77b4; stroke: #1f77b4"/>
     <use xlink:href="#me9ada927c3" x="88.917565" y="138.099644" style="fill: #1f77b4; stroke: #1f77b4"/>
     <use xlink:href="#me9ada927c3" x="89.582084" y="135.641136" style="fill: #1f77b4; stroke: #1f77b4"/>
     <use xlink:href="#me9ada927c3" x="90.139449" y="133.223546" style="fill: #1f77b4; stroke: #1f77b4"/>
     <use xlink:href="#me9ada927c3" x="90.576064" y="130.88575" style="fill: #1f77b4; stroke: #1f77b4"/>
     <use xlink:href="#me9ada927c3" x="90.875679" y="128.669205" style="fill: #1f77b4; stroke: #1f77b4"/>
     <use xlink:href="#me9ada927c3" x="91.019082" y="126.61922" style="fill: #1f77b4; stroke: #1f77b4"/>
     <use xlink:href="#me9ada927c3" x="90.983984" y="124.786252" style="fill: #1f77b4; stroke: #1f77b4"/>
     <use xlink:href="#me9ada927c3" x="90.745243" y="123.227084" style="fill: #1f77b4; stroke: #1f77b4"/>
     <use xlink:href="#me9ada927c3" x="90.275654" y="122.00569" style="fill: #1f77b4; stroke: #1f77b4"/>
     <use xlink:href="#me9ada927c3" x="89.5477" y="121.193408" style="fill: #1f77b4; stroke: #1f77b4"/>
     <use xlink:href="#me9ada927c3" x="88.536712" y="120.867802" style="fill: #1f77b4; stroke: #1f77b4"/>
     <use xlink:href="#me9ada927c3" x="87.225994" y="121.109348" style="fill: #1f77b4; stroke: #1f77b4"/>
     <use xlink:href="#me9ada927c3" x="85.614286" y="121.994845" style="fill: #1f77b4; stroke: #1f77b4"/>
     <use xlink:href="#me9ada927c3" x="83.725368" y="123.586521" style="fill: #1f77b4; stroke: #1f77b4"/>
     <use xlink:href="#me9ada927c3" x="81.618347" y="125.916525" style="fill: #1f77b4; stroke: #1f77b4"/>
     <use xlink:href="#me9ada927c3" x="79.395158" y="128.968289" style="fill: #1f77b4; stroke: #1f77b4"/>
     <use xlink:href="#me9ada927c3" x="77.199909" y="132.659086" style="fill: #1f77b4; stroke: #1f77b4"/>
     <use xlink:href="#me9ada927c3" x="75.204723" y="136.83092" style="fill: #1f77b4; stroke: #1f77b4"/>
     <use xlink:href="#me9ada927c3" x="73.581011" y="141.257257" style="fill: #1f77b4; stroke: #1f77b4"/>
     <use xlink:href="#me9ada927c3" x="72.463332" y="145.66882" style="fill: #1f77b4; stroke: #1f77b4"/>
     <use xlink:href="#me9ada927c3" x="71.920054" y="149.793407" style="fill: #1f77b4; stroke: #1f77b4"/>
     <use xlink:href="#me9ada927c3" x="71.943847" y="153.397271" style="fill: #1f77b4; stroke: #1f77b4"/>
     <use xlink:href="#me9ada927c3" x="72.464717" y="156.314534" style="fill: #1f77b4; stroke: #1f77b4"/>
     <use xlink:href="#me9ada927c3" x="73.376795" y="158.457328" style="fill: #1f77b4; stroke: #1f77b4"/>
     <use xlink:href="#me9ada927c3" x="74.565946" y="159.808275" style="fill: #1f77b4; stroke: #1f77b4"/>
     <use xlink:href="#me9ada927c3" x="75.92933" y="160.40272" style="fill: #1f77b4; stroke: #1f77b4"/>
     <use xlink:href="#me9ada927c3" x="77.384737" y="160.308731" style="fill: #1f77b4; stroke: #1f77b4"/>
     <use xlink:href="#me9ada927c3" x="78.871987" y="159.610101" style="fill: #1f77b4; stroke: #1f77b4"/>
     <use xlink:href="#me9ada927c3" x="80.349953" y="158.394337" style="fill: #1f77b4; stroke: #1f77b4"/>
     <use xlink:href="#me9ada927c3" x="81.792049" y="156.7454" style="fill: #1f77b4; stroke: #1f77b4"/>
     <use xlink:href="#me9ada927c3" x="83.181832" y="154.740063" style="fill: #1f77b4; stroke: #1f77b4"/>
     <use xlink:href="#me9ada927c3" x="84.509377" y="152.446651" style="fill: #1f77b4; stroke: #1f77b4"/>
     <use xlink:href="#me9ada927c3" x="85.76857" y="149.925194" style="fill: #1f77b4; stroke: #1f77b4"/>
     <use xlink:href="#me9ada927c3" x="86.955175" y="147.228318" style="fill: #1f77b4; stroke: #1f77b4"/>
     <use xlink:href="#me9ada927c3" x="88.065481" y="144.402483" style="fill: #1f77b4; stroke: #1f77b4"/>
     <use xlink:href="#me9ada927c3" x="89.095334" y="141.489343" style="fill: #1f77b4; stroke: #1f77b4"/>
     <use xlink:href="#me9ada927c3" x="90.039408" y="138.527138" style="fill: #1f77b4; stroke: #1f77b4"/>
     <use xlink:href="#me9ada927c3" x="90.89059" y="135.552092" style="fill: #1f77b4; stroke: #1f77b4"/>
     <use xlink:href="#me9ada927c3" x="91.639399" y="132.599828" style="fill: #1f77b4; stroke: #1f77b4"/>
     <use xlink:href="#me9ada927c3" x="92.273388" y="129.70685" style="fill: #1f77b4; stroke: #1f77b4"/>
     <use xlink:href="#me9ada927c3" x="92.776482" y="126.91215" style="fill: #1f77b4; stroke: #1f77b4"/>
     <use xlink:href="#me9ada927c3" x="93.128251" y="124.258997" style="fill: #1f77b4; stroke: #1f77b4"/>
     <use xlink:href="#me9ada927c3" x="93.303141" y="121.796958" style="fill: #1f77b4; stroke: #1f77b4"/>
     <use xlink:href="#me9ada927c3" x="93.269755" y="119.584189" style="fill: #1f77b4; stroke: #1f77b4"/>
     <use xlink:href="#me9ada927c3" x="92.99037" y="117.689931" style="fill: #1f77b4; stroke: #1f77b4"/>
     <use xlink:href="#me9ada927c3" x="92.421077" y="116.197023" style="fill: #1f77b4; stroke: #1f77b4"/>
     <use xlink:href="#me9ada927c3" x="91.513176" y="115.203931" style="fill: #1f77b4; stroke: #1f77b4"/>
     <use xlink:href="#me9ada927c3" x="90.216885" y="114.82532" style="fill: #1f77b4; stroke: #1f77b4"/>
     <use xlink:href="#me9ada927c3" x="88.488853" y="115.189434" style="fill: #1f77b4; stroke: #1f77b4"/>
     <use xlink:href="#me9ada927c3" x="86.305217" y="116.42957" style="fill: #1f77b4; stroke: #1f77b4"/>
     <use xlink:href="#me9ada927c3" x="83.681328" y="118.666296" style="fill: #1f77b4; stroke: #1f77b4"/>
     <use xlink:href="#me9ada927c3" x="80.696557" y="121.977672" style="fill: #1f77b4; stroke: #1f77b4"/>
     <use xlink:href="#me9ada927c3" x="77.516704" y="126.358784" style="fill: #1f77b4; stroke: #1f77b4"/>
     <use xlink:href="#me9ada927c3" x="74.398551" y="131.680294" style="fill: #1f77b4; stroke: #1f77b4"/>
    </g>
   </g>
   <g id="matplotlib.axis_1">
    <g id="xtick_1">
     <g id="line2d_1">
      <path d="M 70.635829 278.296 
L 70.635829 27.24 
" clip-path="url(#pa8659c4377)" style="fill: none; stroke-dasharray: 0.5,0.825; stroke-dashoffset: 0; stroke: #555555; stroke-width: 0.5"/>
     </g>
     <g id="line2d_2">
      <defs>
       <path id="me1b9a1c1dd" d="M 0 0 
L 0 3.5 
" style="stroke: #ffffff; stroke-width: 0.8"/>
      </defs>
      <g>
       <use xlink:href="#me1b9a1c1dd" x="70.635829" y="278.296" style="fill: #ffffff; stroke: #ffffff; stroke-width: 0.8"/>
      </g>
     </g>
     <g id="text_1">
      <!-- −0.75 -->
      <g style="fill: #ffffff" transform="translate(55.313172 292.894437) scale(0.1 -0.1)">
       <defs>
        <path id="DejaVuSans-2212" d="M 678 2272 
L 4684 2272 
L 4684 1741 
L 678 1741 
L 678 2272 
z
" transform="scale(0.015625)"/>
        <path id="DejaVuSans-30" d="M 2034 4250 
Q 1547 4250 1301 3770 
Q 1056 3291 1056 2328 
Q 1056 1369 1301 889 
Q 1547 409 2034 409 
Q 2525 409 2770 889 
Q 3016 1369 3016 2328 
Q 3016 3291 2770 3770 
Q 2525 4250 2034 4250 
z
M 2034 4750 
Q 2819 4750 3233 4129 
Q 3647 3509 3647 2328 
Q 3647 1150 3233 529 
Q 2819 -91 2034 -91 
Q 1250 -91 836 529 
Q 422 1150 422 2328 
Q 422 3509 836 4129 
Q 1250 4750 2034 4750 
z
" transform="scale(0.015625)"/>
        <path id="DejaVuSans-2e" d="M 684 794 
L 1344 794 
L 1344 0 
L 684 0 
L 684 794 
z
" transform="scale(0.015625)"/>
        <path id="DejaVuSans-37" d="M 525 4666 
L 3525 4666 
L 3525 4397 
L 1831 0 
L 1172 0 
L 2766 4134 
L 525 4134 
L 525 4666 
z
" transform="scale(0.015625)"/>
        <path id="DejaVuSans-35" d="M 691 4666 
L 3169 4666 
L 3169 4134 
L 1269 4134 
L 1269 2991 
Q 1406 3038 1543 3061 
Q 1681 3084 1819 3084 
Q 2600 3084 3056 2656 
Q 3513 2228 3513 1497 
Q 3513 744 3044 326 
Q 2575 -91 1722 -91 
Q 1428 -91 1123 -41 
Q 819 9 494 109 
L 494 744 
Q 775 591 1075 516 
Q 1375 441 1709 441 
Q 2250 441 2565 725 
Q 2881 1009 2881 1497 
Q 2881 1984 2565 2268 
Q 2250 2553 1709 2553 
Q 1456 2553 1204 2497 
Q 953 2441 691 2322 
L 691 4666 
z
" transform="scale(0.015625)"/>
       </defs>
       <use xlink:href="#DejaVuSans-2212"/>
       <use xlink:href="#DejaVuSans-30" transform="translate(83.789062 0)"/>
       <use xlink:href="#DejaVuSans-2e" transform="translate(147.412109 0)"/>
       <use xlink:href="#DejaVuSans-37" transform="translate(179.199219 0)"/>
       <use xlink:href="#DejaVuSans-35" transform="translate(242.822266 0)"/>
      </g>
     </g>
    </g>
    <g id="xtick_2">
     <g id="line2d_3">
      <path d="M 109.102692 278.296 
L 109.102692 27.24 
" clip-path="url(#pa8659c4377)" style="fill: none; stroke-dasharray: 0.5,0.825; stroke-dashoffset: 0; stroke: #555555; stroke-width: 0.5"/>
     </g>
     <g id="line2d_4">
      <g>
       <use xlink:href="#me1b9a1c1dd" x="109.102692" y="278.296" style="fill: #ffffff; stroke: #ffffff; stroke-width: 0.8"/>
      </g>
     </g>
     <g id="text_2">
      <!-- −0.50 -->
      <g style="fill: #ffffff" transform="translate(93.780035 292.894437) scale(0.1 -0.1)">
       <use xlink:href="#DejaVuSans-2212"/>
       <use xlink:href="#DejaVuSans-30" transform="translate(83.789062 0)"/>
       <use xlink:href="#DejaVuSans-2e" transform="translate(147.412109 0)"/>
       <use xlink:href="#DejaVuSans-35" transform="translate(179.199219 0)"/>
       <use xlink:href="#DejaVuSans-30" transform="translate(242.822266 0)"/>
      </g>
     </g>
    </g>
    <g id="xtick_3">
     <g id="line2d_5">
      <path d="M 147.569555 278.296 
L 147.569555 27.24 
" clip-path="url(#pa8659c4377)" style="fill: none; stroke-dasharray: 0.5,0.825; stroke-dashoffset: 0; stroke: #555555; stroke-width: 0.5"/>
     </g>
     <g id="line2d_6">
      <g>
       <use xlink:href="#me1b9a1c1dd" x="147.569555" y="278.296" style="fill: #ffffff; stroke: #ffffff; stroke-width: 0.8"/>
      </g>
     </g>
     <g id="text_3">
      <!-- −0.25 -->
      <g style="fill: #ffffff" transform="translate(132.246899 292.894437) scale(0.1 -0.1)">
       <defs>
        <path id="DejaVuSans-32" d="M 1228 531 
L 3431 531 
L 3431 0 
L 469 0 
L 469 531 
Q 828 903 1448 1529 
Q 2069 2156 2228 2338 
Q 2531 2678 2651 2914 
Q 2772 3150 2772 3378 
Q 2772 3750 2511 3984 
Q 2250 4219 1831 4219 
Q 1534 4219 1204 4116 
Q 875 4013 500 3803 
L 500 4441 
Q 881 4594 1212 4672 
Q 1544 4750 1819 4750 
Q 2544 4750 2975 4387 
Q 3406 4025 3406 3419 
Q 3406 3131 3298 2873 
Q 3191 2616 2906 2266 
Q 2828 2175 2409 1742 
Q 1991 1309 1228 531 
z
" transform="scale(0.015625)"/>
       </defs>
       <use xlink:href="#DejaVuSans-2212"/>
       <use xlink:href="#DejaVuSans-30" transform="translate(83.789062 0)"/>
       <use xlink:href="#DejaVuSans-2e" transform="translate(147.412109 0)"/>
       <use xlink:href="#DejaVuSans-32" transform="translate(179.199219 0)"/>
       <use xlink:href="#DejaVuSans-35" transform="translate(242.822266 0)"/>
      </g>
     </g>
    </g>
    <g id="xtick_4">
     <g id="line2d_7">
      <path d="M 186.036418 278.296 
L 186.036418 27.24 
" clip-path="url(#pa8659c4377)" style="fill: none; stroke-dasharray: 0.5,0.825; stroke-dashoffset: 0; stroke: #555555; stroke-width: 0.5"/>
     </g>
     <g id="line2d_8">
      <g>
       <use xlink:href="#me1b9a1c1dd" x="186.036418" y="278.296" style="fill: #ffffff; stroke: #ffffff; stroke-width: 0.8"/>
      </g>
     </g>
     <g id="text_4">
      <!-- 0.00 -->
      <g style="fill: #ffffff" transform="translate(174.903605 292.894437) scale(0.1 -0.1)">
       <use xlink:href="#DejaVuSans-30"/>
       <use xlink:href="#DejaVuSans-2e" transform="translate(63.623047 0)"/>
       <use xlink:href="#DejaVuSans-30" transform="translate(95.410156 0)"/>
       <use xlink:href="#DejaVuSans-30" transform="translate(159.033203 0)"/>
      </g>
     </g>
    </g>
    <g id="xtick_5">
     <g id="line2d_9">
      <path d="M 224.503281 278.296 
L 224.503281 27.24 
" clip-path="url(#pa8659c4377)" style="fill: none; stroke-dasharray: 0.5,0.825; stroke-dashoffset: 0; stroke: #555555; stroke-width: 0.5"/>
     </g>
     <g id="line2d_10">
      <g>
       <use xlink:href="#me1b9a1c1dd" x="224.503281" y="278.296" style="fill: #ffffff; stroke: #ffffff; stroke-width: 0.8"/>
      </g>
     </g>
     <g id="text_5">
      <!-- 0.25 -->
      <g style="fill: #ffffff" transform="translate(213.370469 292.894437) scale(0.1 -0.1)">
       <use xlink:href="#DejaVuSans-30"/>
       <use xlink:href="#DejaVuSans-2e" transform="translate(63.623047 0)"/>
       <use xlink:href="#DejaVuSans-32" transform="translate(95.410156 0)"/>
       <use xlink:href="#DejaVuSans-35" transform="translate(159.033203 0)"/>
      </g>
     </g>
    </g>
    <g id="xtick_6">
     <g id="line2d_11">
      <path d="M 262.970144 278.296 
L 262.970144 27.24 
" clip-path="url(#pa8659c4377)" style="fill: none; stroke-dasharray: 0.5,0.825; stroke-dashoffset: 0; stroke: #555555; stroke-width: 0.5"/>
     </g>
     <g id="line2d_12">
      <g>
       <use xlink:href="#me1b9a1c1dd" x="262.970144" y="278.296" style="fill: #ffffff; stroke: #ffffff; stroke-width: 0.8"/>
      </g>
     </g>
     <g id="text_6">
      <!-- 0.50 -->
      <g style="fill: #ffffff" transform="translate(251.837332 292.894437) scale(0.1 -0.1)">
       <use xlink:href="#DejaVuSans-30"/>
       <use xlink:href="#DejaVuSans-2e" transform="translate(63.623047 0)"/>
       <use xlink:href="#DejaVuSans-35" transform="translate(95.410156 0)"/>
       <use xlink:href="#DejaVuSans-30" transform="translate(159.033203 0)"/>
      </g>
     </g>
    </g>
    <g id="xtick_7">
     <g id="line2d_13">
      <path d="M 301.437007 278.296 
L 301.437007 27.24 
" clip-path="url(#pa8659c4377)" style="fill: none; stroke-dasharray: 0.5,0.825; stroke-dashoffset: 0; stroke: #555555; stroke-width: 0.5"/>
     </g>
     <g id="line2d_14">
      <g>
       <use xlink:href="#me1b9a1c1dd" x="301.437007" y="278.296" style="fill: #ffffff; stroke: #ffffff; stroke-width: 0.8"/>
      </g>
     </g>
     <g id="text_7">
      <!-- 0.75 -->
      <g style="fill: #ffffff" transform="translate(290.304195 292.894437) scale(0.1 -0.1)">
       <use xlink:href="#DejaVuSans-30"/>
       <use xlink:href="#DejaVuSans-2e" transform="translate(63.623047 0)"/>
       <use xlink:href="#DejaVuSans-37" transform="translate(95.410156 0)"/>
       <use xlink:href="#DejaVuSans-35" transform="translate(159.033203 0)"/>
      </g>
     </g>
    </g>
    <g id="text_8">
     <!-- $q_2'$ -->
     <g style="fill: #ffffff" transform="translate(180.486418 306.774125) scale(0.1 -0.1)">
      <defs>
       <path id="DejaVuSans-Oblique-71" d="M 2669 525 
Q 2438 222 2123 65 
Q 1809 -91 1428 -91 
Q 897 -91 595 267 
Q 294 625 294 1253 
Q 294 1759 480 2231 
Q 666 2703 1013 3078 
Q 1238 3322 1530 3453 
Q 1822 3584 2144 3584 
Q 2531 3584 2781 3431 
Q 3031 3278 3144 2969 
L 3244 3494 
L 3822 3494 
L 2888 -1319 
L 2309 -1319 
L 2669 525 
z
M 891 1338 
Q 891 875 1084 633 
Q 1278 391 1644 391 
Q 2188 391 2572 911 
Q 2956 1431 2956 2175 
Q 2956 2625 2757 2864 
Q 2559 3103 2188 3103 
Q 1916 3103 1684 2976 
Q 1453 2850 1281 2606 
Q 1100 2350 995 2006 
Q 891 1663 891 1338 
z
" transform="scale(0.015625)"/>
       <path id="Cmsy10-30" d="M 225 347 
Q 184 359 184 409 
L 966 3316 
Q 1003 3434 1093 3506 
Q 1184 3578 1300 3578 
Q 1450 3578 1564 3479 
Q 1678 3381 1678 3231 
Q 1678 3166 1644 3084 
L 488 319 
Q 466 275 428 275 
Q 394 275 320 306 
Q 247 338 225 347 
z
" transform="scale(0.015625)"/>
      </defs>
      <use xlink:href="#DejaVuSans-Oblique-71" transform="translate(0 0.584375)"/>
      <use xlink:href="#Cmsy10-30" transform="translate(68.126458 38.865625) scale(0.7)"/>
      <use xlink:href="#DejaVuSans-32" transform="translate(63.476562 -26.759375) scale(0.7)"/>
     </g>
    </g>
   </g>
   <g id="matplotlib.axis_2">
    <g id="ytick_1">
     <g id="line2d_15">
      <path d="M 60.508418 275.861962 
L 311.564418 275.861962 
" clip-path="url(#pa8659c4377)" style="fill: none; stroke-dasharray: 0.5,0.825; stroke-dashoffset: 0; stroke: #555555; stroke-width: 0.5"/>
     </g>
     <g id="line2d_16">
      <defs>
       <path id="m7bc624dfd5" d="M 0 0 
L -3.5 0 
" style="stroke: #ffffff; stroke-width: 0.8"/>
      </defs>
      <g>
       <use xlink:href="#m7bc624dfd5" x="60.508418" y="275.861962" style="fill: #ffffff; stroke: #ffffff; stroke-width: 0.8"/>
      </g>
     </g>
     <g id="text_9">
      <!-- −0.8 -->
      <g style="fill: #ffffff" transform="translate(29.225605 279.661181) scale(0.1 -0.1)">
       <defs>
        <path id="DejaVuSans-38" d="M 2034 2216 
Q 1584 2216 1326 1975 
Q 1069 1734 1069 1313 
Q 1069 891 1326 650 
Q 1584 409 2034 409 
Q 2484 409 2743 651 
Q 3003 894 3003 1313 
Q 3003 1734 2745 1975 
Q 2488 2216 2034 2216 
z
M 1403 2484 
Q 997 2584 770 2862 
Q 544 3141 544 3541 
Q 544 4100 942 4425 
Q 1341 4750 2034 4750 
Q 2731 4750 3128 4425 
Q 3525 4100 3525 3541 
Q 3525 3141 3298 2862 
Q 3072 2584 2669 2484 
Q 3125 2378 3379 2068 
Q 3634 1759 3634 1313 
Q 3634 634 3220 271 
Q 2806 -91 2034 -91 
Q 1263 -91 848 271 
Q 434 634 434 1313 
Q 434 1759 690 2068 
Q 947 2378 1403 2484 
z
M 1172 3481 
Q 1172 3119 1398 2916 
Q 1625 2713 2034 2713 
Q 2441 2713 2670 2916 
Q 2900 3119 2900 3481 
Q 2900 3844 2670 4047 
Q 2441 4250 2034 4250 
Q 1625 4250 1398 4047 
Q 1172 3844 1172 3481 
z
" transform="scale(0.015625)"/>
       </defs>
       <use xlink:href="#DejaVuSans-2212"/>
       <use xlink:href="#DejaVuSans-30" transform="translate(83.789062 0)"/>
       <use xlink:href="#DejaVuSans-2e" transform="translate(147.412109 0)"/>
       <use xlink:href="#DejaVuSans-38" transform="translate(179.199219 0)"/>
      </g>
     </g>
    </g>
    <g id="ytick_2">
     <g id="line2d_17">
      <path d="M 60.508418 245.088472 
L 311.564418 245.088472 
" clip-path="url(#pa8659c4377)" style="fill: none; stroke-dasharray: 0.5,0.825; stroke-dashoffset: 0; stroke: #555555; stroke-width: 0.5"/>
     </g>
     <g id="line2d_18">
      <g>
       <use xlink:href="#m7bc624dfd5" x="60.508418" y="245.088472" style="fill: #ffffff; stroke: #ffffff; stroke-width: 0.8"/>
      </g>
     </g>
     <g id="text_10">
      <!-- −0.6 -->
      <g style="fill: #ffffff" transform="translate(29.225605 248.88769) scale(0.1 -0.1)">
       <defs>
        <path id="DejaVuSans-36" d="M 2113 2584 
Q 1688 2584 1439 2293 
Q 1191 2003 1191 1497 
Q 1191 994 1439 701 
Q 1688 409 2113 409 
Q 2538 409 2786 701 
Q 3034 994 3034 1497 
Q 3034 2003 2786 2293 
Q 2538 2584 2113 2584 
z
M 3366 4563 
L 3366 3988 
Q 3128 4100 2886 4159 
Q 2644 4219 2406 4219 
Q 1781 4219 1451 3797 
Q 1122 3375 1075 2522 
Q 1259 2794 1537 2939 
Q 1816 3084 2150 3084 
Q 2853 3084 3261 2657 
Q 3669 2231 3669 1497 
Q 3669 778 3244 343 
Q 2819 -91 2113 -91 
Q 1303 -91 875 529 
Q 447 1150 447 2328 
Q 447 3434 972 4092 
Q 1497 4750 2381 4750 
Q 2619 4750 2861 4703 
Q 3103 4656 3366 4563 
z
" transform="scale(0.015625)"/>
       </defs>
       <use xlink:href="#DejaVuSans-2212"/>
       <use xlink:href="#DejaVuSans-30" transform="translate(83.789062 0)"/>
       <use xlink:href="#DejaVuSans-2e" transform="translate(147.412109 0)"/>
       <use xlink:href="#DejaVuSans-36" transform="translate(179.199219 0)"/>
      </g>
     </g>
    </g>
    <g id="ytick_3">
     <g id="line2d_19">
      <path d="M 60.508418 214.314981 
L 311.564418 214.314981 
" clip-path="url(#pa8659c4377)" style="fill: none; stroke-dasharray: 0.5,0.825; stroke-dashoffset: 0; stroke: #555555; stroke-width: 0.5"/>
     </g>
     <g id="line2d_20">
      <g>
       <use xlink:href="#m7bc624dfd5" x="60.508418" y="214.314981" style="fill: #ffffff; stroke: #ffffff; stroke-width: 0.8"/>
      </g>
     </g>
     <g id="text_11">
      <!-- −0.4 -->
      <g style="fill: #ffffff" transform="translate(29.225605 218.1142) scale(0.1 -0.1)">
       <defs>
        <path id="DejaVuSans-34" d="M 2419 4116 
L 825 1625 
L 2419 1625 
L 2419 4116 
z
M 2253 4666 
L 3047 4666 
L 3047 1625 
L 3713 1625 
L 3713 1100 
L 3047 1100 
L 3047 0 
L 2419 0 
L 2419 1100 
L 313 1100 
L 313 1709 
L 2253 4666 
z
" transform="scale(0.015625)"/>
       </defs>
       <use xlink:href="#DejaVuSans-2212"/>
       <use xlink:href="#DejaVuSans-30" transform="translate(83.789062 0)"/>
       <use xlink:href="#DejaVuSans-2e" transform="translate(147.412109 0)"/>
       <use xlink:href="#DejaVuSans-34" transform="translate(179.199219 0)"/>
      </g>
     </g>
    </g>
    <g id="ytick_4">
     <g id="line2d_21">
      <path d="M 60.508418 183.541491 
L 311.564418 183.541491 
" clip-path="url(#pa8659c4377)" style="fill: none; stroke-dasharray: 0.5,0.825; stroke-dashoffset: 0; stroke: #555555; stroke-width: 0.5"/>
     </g>
     <g id="line2d_22">
      <g>
       <use xlink:href="#m7bc624dfd5" x="60.508418" y="183.541491" style="fill: #ffffff; stroke: #ffffff; stroke-width: 0.8"/>
      </g>
     </g>
     <g id="text_12">
      <!-- −0.2 -->
      <g style="fill: #ffffff" transform="translate(29.225605 187.340709) scale(0.1 -0.1)">
       <use xlink:href="#DejaVuSans-2212"/>
       <use xlink:href="#DejaVuSans-30" transform="translate(83.789062 0)"/>
       <use xlink:href="#DejaVuSans-2e" transform="translate(147.412109 0)"/>
       <use xlink:href="#DejaVuSans-32" transform="translate(179.199219 0)"/>
      </g>
     </g>
    </g>
    <g id="ytick_5">
     <g id="line2d_23">
      <path d="M 60.508418 152.768 
L 311.564418 152.768 
" clip-path="url(#pa8659c4377)" style="fill: none; stroke-dasharray: 0.5,0.825; stroke-dashoffset: 0; stroke: #555555; stroke-width: 0.5"/>
     </g>
     <g id="line2d_24">
      <g>
       <use xlink:href="#m7bc624dfd5" x="60.508418" y="152.768" style="fill: #ffffff; stroke: #ffffff; stroke-width: 0.8"/>
      </g>
     </g>
     <g id="text_13">
      <!-- 0.0 -->
      <g style="fill: #ffffff" transform="translate(37.605293 156.567219) scale(0.1 -0.1)">
       <use xlink:href="#DejaVuSans-30"/>
       <use xlink:href="#DejaVuSans-2e" transform="translate(63.623047 0)"/>
       <use xlink:href="#DejaVuSans-30" transform="translate(95.410156 0)"/>
      </g>
     </g>
    </g>
    <g id="ytick_6">
     <g id="line2d_25">
      <path d="M 60.508418 121.994509 
L 311.564418 121.994509 
" clip-path="url(#pa8659c4377)" style="fill: none; stroke-dasharray: 0.5,0.825; stroke-dashoffset: 0; stroke: #555555; stroke-width: 0.5"/>
     </g>
     <g id="line2d_26">
      <g>
       <use xlink:href="#m7bc624dfd5" x="60.508418" y="121.994509" style="fill: #ffffff; stroke: #ffffff; stroke-width: 0.8"/>
      </g>
     </g>
     <g id="text_14">
      <!-- 0.2 -->
      <g style="fill: #ffffff" transform="translate(37.605293 125.793728) scale(0.1 -0.1)">
       <use xlink:href="#DejaVuSans-30"/>
       <use xlink:href="#DejaVuSans-2e" transform="translate(63.623047 0)"/>
       <use xlink:href="#DejaVuSans-32" transform="translate(95.410156 0)"/>
      </g>
     </g>
    </g>
    <g id="ytick_7">
     <g id="line2d_27">
      <path d="M 60.508418 91.221019 
L 311.564418 91.221019 
" clip-path="url(#pa8659c4377)" style="fill: none; stroke-dasharray: 0.5,0.825; stroke-dashoffset: 0; stroke: #555555; stroke-width: 0.5"/>
     </g>
     <g id="line2d_28">
      <g>
       <use xlink:href="#m7bc624dfd5" x="60.508418" y="91.221019" style="fill: #ffffff; stroke: #ffffff; stroke-width: 0.8"/>
      </g>
     </g>
     <g id="text_15">
      <!-- 0.4 -->
      <g style="fill: #ffffff" transform="translate(37.605293 95.020238) scale(0.1 -0.1)">
       <use xlink:href="#DejaVuSans-30"/>
       <use xlink:href="#DejaVuSans-2e" transform="translate(63.623047 0)"/>
       <use xlink:href="#DejaVuSans-34" transform="translate(95.410156 0)"/>
      </g>
     </g>
    </g>
    <g id="ytick_8">
     <g id="line2d_29">
      <path d="M 60.508418 60.447528 
L 311.564418 60.447528 
" clip-path="url(#pa8659c4377)" style="fill: none; stroke-dasharray: 0.5,0.825; stroke-dashoffset: 0; stroke: #555555; stroke-width: 0.5"/>
     </g>
     <g id="line2d_30">
      <g>
       <use xlink:href="#m7bc624dfd5" x="60.508418" y="60.447528" style="fill: #ffffff; stroke: #ffffff; stroke-width: 0.8"/>
      </g>
     </g>
     <g id="text_16">
      <!-- 0.6 -->
      <g style="fill: #ffffff" transform="translate(37.605293 64.246747) scale(0.1 -0.1)">
       <use xlink:href="#DejaVuSans-30"/>
       <use xlink:href="#DejaVuSans-2e" transform="translate(63.623047 0)"/>
       <use xlink:href="#DejaVuSans-36" transform="translate(95.410156 0)"/>
      </g>
     </g>
    </g>
    <g id="ytick_9">
     <g id="line2d_31">
      <path d="M 60.508418 29.674038 
L 311.564418 29.674038 
" clip-path="url(#pa8659c4377)" style="fill: none; stroke-dasharray: 0.5,0.825; stroke-dashoffset: 0; stroke: #555555; stroke-width: 0.5"/>
     </g>
     <g id="line2d_32">
      <g>
       <use xlink:href="#m7bc624dfd5" x="60.508418" y="29.674038" style="fill: #ffffff; stroke: #ffffff; stroke-width: 0.8"/>
      </g>
     </g>
     <g id="text_17">
      <!-- 0.8 -->
      <g style="fill: #ffffff" transform="translate(37.605293 33.473257) scale(0.1 -0.1)">
       <use xlink:href="#DejaVuSans-30"/>
       <use xlink:href="#DejaVuSans-2e" transform="translate(63.623047 0)"/>
       <use xlink:href="#DejaVuSans-38" transform="translate(95.410156 0)"/>
      </g>
     </g>
    </g>
    <g id="text_18">
     <!-- $p_2'$ -->
     <g style="fill: #ffffff" transform="translate(22.425605 158.318) rotate(-90) scale(0.1 -0.1)">
      <defs>
       <path id="DejaVuSans-Oblique-70" d="M 3175 2156 
Q 3175 2616 2975 2859 
Q 2775 3103 2400 3103 
Q 2144 3103 1911 2972 
Q 1678 2841 1497 2591 
Q 1319 2344 1212 1994 
Q 1106 1644 1106 1300 
Q 1106 863 1306 627 
Q 1506 391 1875 391 
Q 2147 391 2380 519 
Q 2613 647 2778 891 
Q 2956 1147 3065 1494 
Q 3175 1841 3175 2156 
z
M 1394 2969 
Q 1625 3272 1939 3428 
Q 2253 3584 2638 3584 
Q 3175 3584 3472 3232 
Q 3769 2881 3769 2247 
Q 3769 1728 3584 1258 
Q 3400 788 3053 416 
Q 2822 169 2531 39 
Q 2241 -91 1919 -91 
Q 1547 -91 1294 64 
Q 1041 219 916 525 
L 556 -1331 
L -19 -1331 
L 922 3500 
L 1497 3500 
L 1394 2969 
z
" transform="scale(0.015625)"/>
      </defs>
      <use xlink:href="#DejaVuSans-Oblique-70" transform="translate(0 0.584375)"/>
      <use xlink:href="#Cmsy10-30" transform="translate(68.126458 38.865625) scale(0.7)"/>
      <use xlink:href="#DejaVuSans-32" transform="translate(63.476562 -26.759375) scale(0.7)"/>
     </g>
    </g>
   </g>
   <g id="patch_3">
    <path d="M 60.508418 278.296 
L 60.508418 27.24 
" style="fill: none; stroke: #ffffff; stroke-width: 0.5; stroke-linejoin: miter; stroke-linecap: square"/>
   </g>
   <g id="patch_4">
    <path d="M 311.564418 278.296 
L 311.564418 27.24 
" style="fill: none; stroke: #ffffff; stroke-width: 0.5; stroke-linejoin: miter; stroke-linecap: square"/>
   </g>
   <g id="patch_5">
    <path d="M 60.508418 278.296 
L 311.564418 278.296 
" style="fill: none; stroke: #ffffff; stroke-width: 0.5; stroke-linejoin: miter; stroke-linecap: square"/>
   </g>
   <g id="patch_6">
    <path d="M 60.508418 27.24 
L 311.564418 27.24 
" style="fill: none; stroke: #ffffff; stroke-width: 0.5; stroke-linejoin: miter; stroke-linecap: square"/>
   </g>
   <g id="text_19">
    <!-- Poincaré Map h=0.600 -->
    <g style="fill: #ffffff" transform="translate(118.012355 21.24) scale(0.12 -0.12)">
     <defs>
      <path id="DejaVuSans-50" d="M 1259 4147 
L 1259 2394 
L 2053 2394 
Q 2494 2394 2734 2622 
Q 2975 2850 2975 3272 
Q 2975 3691 2734 3919 
Q 2494 4147 2053 4147 
L 1259 4147 
z
M 628 4666 
L 2053 4666 
Q 2838 4666 3239 4311 
Q 3641 3956 3641 3272 
Q 3641 2581 3239 2228 
Q 2838 1875 2053 1875 
L 1259 1875 
L 1259 0 
L 628 0 
L 628 4666 
z
" transform="scale(0.015625)"/>
      <path id="DejaVuSans-6f" d="M 1959 3097 
Q 1497 3097 1228 2736 
Q 959 2375 959 1747 
Q 959 1119 1226 758 
Q 1494 397 1959 397 
Q 2419 397 2687 759 
Q 2956 1122 2956 1747 
Q 2956 2369 2687 2733 
Q 2419 3097 1959 3097 
z
M 1959 3584 
Q 2709 3584 3137 3096 
Q 3566 2609 3566 1747 
Q 3566 888 3137 398 
Q 2709 -91 1959 -91 
Q 1206 -91 779 398 
Q 353 888 353 1747 
Q 353 2609 779 3096 
Q 1206 3584 1959 3584 
z
" transform="scale(0.015625)"/>
      <path id="DejaVuSans-69" d="M 603 3500 
L 1178 3500 
L 1178 0 
L 603 0 
L 603 3500 
z
M 603 4863 
L 1178 4863 
L 1178 4134 
L 603 4134 
L 603 4863 
z
" transform="scale(0.015625)"/>
      <path id="DejaVuSans-6e" d="M 3513 2113 
L 3513 0 
L 2938 0 
L 2938 2094 
Q 2938 2591 2744 2837 
Q 2550 3084 2163 3084 
Q 1697 3084 1428 2787 
Q 1159 2491 1159 1978 
L 1159 0 
L 581 0 
L 581 3500 
L 1159 3500 
L 1159 2956 
Q 1366 3272 1645 3428 
Q 1925 3584 2291 3584 
Q 2894 3584 3203 3211 
Q 3513 2838 3513 2113 
z
" transform="scale(0.015625)"/>
      <path id="DejaVuSans-63" d="M 3122 3366 
L 3122 2828 
Q 2878 2963 2633 3030 
Q 2388 3097 2138 3097 
Q 1578 3097 1268 2742 
Q 959 2388 959 1747 
Q 959 1106 1268 751 
Q 1578 397 2138 397 
Q 2388 397 2633 464 
Q 2878 531 3122 666 
L 3122 134 
Q 2881 22 2623 -34 
Q 2366 -91 2075 -91 
Q 1284 -91 818 406 
Q 353 903 353 1747 
Q 353 2603 823 3093 
Q 1294 3584 2113 3584 
Q 2378 3584 2631 3529 
Q 2884 3475 3122 3366 
z
" transform="scale(0.015625)"/>
      <path id="DejaVuSans-61" d="M 2194 1759 
Q 1497 1759 1228 1600 
Q 959 1441 959 1056 
Q 959 750 1161 570 
Q 1363 391 1709 391 
Q 2188 391 2477 730 
Q 2766 1069 2766 1631 
L 2766 1759 
L 2194 1759 
z
M 3341 1997 
L 3341 0 
L 2766 0 
L 2766 531 
Q 2569 213 2275 61 
Q 1981 -91 1556 -91 
Q 1019 -91 701 211 
Q 384 513 384 1019 
Q 384 1609 779 1909 
Q 1175 2209 1959 2209 
L 2766 2209 
L 2766 2266 
Q 2766 2663 2505 2880 
Q 2244 3097 1772 3097 
Q 1472 3097 1187 3025 
Q 903 2953 641 2809 
L 641 3341 
Q 956 3463 1253 3523 
Q 1550 3584 1831 3584 
Q 2591 3584 2966 3190 
Q 3341 2797 3341 1997 
z
" transform="scale(0.015625)"/>
      <path id="DejaVuSans-72" d="M 2631 2963 
Q 2534 3019 2420 3045 
Q 2306 3072 2169 3072 
Q 1681 3072 1420 2755 
Q 1159 2438 1159 1844 
L 1159 0 
L 581 0 
L 581 3500 
L 1159 3500 
L 1159 2956 
Q 1341 3275 1631 3429 
Q 1922 3584 2338 3584 
Q 2397 3584 2469 3576 
Q 2541 3569 2628 3553 
L 2631 2963 
z
" transform="scale(0.015625)"/>
      <path id="DejaVuSans-e9" d="M 3597 1894 
L 3597 1613 
L 953 1613 
Q 991 1019 1311 708 
Q 1631 397 2203 397 
Q 2534 397 2845 478 
Q 3156 559 3463 722 
L 3463 178 
Q 3153 47 2828 -22 
Q 2503 -91 2169 -91 
Q 1331 -91 842 396 
Q 353 884 353 1716 
Q 353 2575 817 3079 
Q 1281 3584 2069 3584 
Q 2775 3584 3186 3129 
Q 3597 2675 3597 1894 
z
M 3022 2063 
Q 3016 2534 2758 2815 
Q 2500 3097 2075 3097 
Q 1594 3097 1305 2825 
Q 1016 2553 972 2059 
L 3022 2063 
z
M 2466 5119 
L 3088 5119 
L 2070 3944 
L 1591 3944 
L 2466 5119 
z
" transform="scale(0.015625)"/>
      <path id="DejaVuSans-20" transform="scale(0.015625)"/>
      <path id="DejaVuSans-4d" d="M 628 4666 
L 1569 4666 
L 2759 1491 
L 3956 4666 
L 4897 4666 
L 4897 0 
L 4281 0 
L 4281 4097 
L 3078 897 
L 2444 897 
L 1241 4097 
L 1241 0 
L 628 0 
L 628 4666 
z
" transform="scale(0.015625)"/>
      <path id="DejaVuSans-70" d="M 1159 525 
L 1159 -1331 
L 581 -1331 
L 581 3500 
L 1159 3500 
L 1159 2969 
Q 1341 3281 1617 3432 
Q 1894 3584 2278 3584 
Q 2916 3584 3314 3078 
Q 3713 2572 3713 1747 
Q 3713 922 3314 415 
Q 2916 -91 2278 -91 
Q 1894 -91 1617 61 
Q 1341 213 1159 525 
z
M 3116 1747 
Q 3116 2381 2855 2742 
Q 2594 3103 2138 3103 
Q 1681 3103 1420 2742 
Q 1159 2381 1159 1747 
Q 1159 1113 1420 752 
Q 1681 391 2138 391 
Q 2594 391 2855 752 
Q 3116 1113 3116 1747 
z
" transform="scale(0.015625)"/>
      <path id="DejaVuSans-68" d="M 3513 2113 
L 3513 0 
L 2938 0 
L 2938 2094 
Q 2938 2591 2744 2837 
Q 2550 3084 2163 3084 
Q 1697 3084 1428 2787 
Q 1159 2491 1159 1978 
L 1159 0 
L 581 0 
L 581 4863 
L 1159 4863 
L 1159 2956 
Q 1366 3272 1645 3428 
Q 1925 3584 2291 3584 
Q 2894 3584 3203 3211 
Q 3513 2838 3513 2113 
z
" transform="scale(0.015625)"/>
      <path id="DejaVuSans-3d" d="M 678 2906 
L 4684 2906 
L 4684 2381 
L 678 2381 
L 678 2906 
z
M 678 1631 
L 4684 1631 
L 4684 1100 
L 678 1100 
L 678 1631 
z
" transform="scale(0.015625)"/>
     </defs>
     <use xlink:href="#DejaVuSans-50"/>
     <use xlink:href="#DejaVuSans-6f" transform="translate(56.677734 0)"/>
     <use xlink:href="#DejaVuSans-69" transform="translate(117.859375 0)"/>
     <use xlink:href="#DejaVuSans-6e" transform="translate(145.642578 0)"/>
     <use xlink:href="#DejaVuSans-63" transform="translate(209.021484 0)"/>
     <use xlink:href="#DejaVuSans-61" transform="translate(264.001953 0)"/>
     <use xlink:href="#DejaVuSans-72" transform="translate(325.28125 0)"/>
     <use xlink:href="#DejaVuSans-e9" transform="translate(364.144531 0)"/>
     <use xlink:href="#DejaVuSans-20" transform="translate(425.667969 0)"/>
     <use xlink:href="#DejaVuSans-4d" transform="translate(457.455078 0)"/>
     <use xlink:href="#DejaVuSans-61" transform="translate(543.734375 0)"/>
     <use xlink:href="#DejaVuSans-70" transform="translate(605.013672 0)"/>
     <use xlink:href="#DejaVuSans-20" transform="translate(668.490234 0)"/>
     <use xlink:href="#DejaVuSans-68" transform="translate(700.277344 0)"/>
     <use xlink:href="#DejaVuSans-3d" transform="translate(763.65625 0)"/>
     <use xlink:href="#DejaVuSans-30" transform="translate(847.445312 0)"/>
     <use xlink:href="#DejaVuSans-2e" transform="translate(911.068359 0)"/>
     <use xlink:href="#DejaVuSans-36" transform="translate(942.855469 0)"/>
     <use xlink:href="#DejaVuSans-30" transform="translate(1006.478516 0)"/>
     <use xlink:href="#DejaVuSans-30" transform="translate(1070.101562 0)"/>
    </g>
   </g>
  </g>
 </g>
 <defs>
  <clipPath id="pa8659c4377">
   <rect x="60.508418" y="27.24" width="251.056" height="251.056"/>
  </clipPath>
 </defs>
</svg>
